<?xml version="1.0" encoding="UTF-8"?>
<svg width="16px" height="16px" viewBox="0 0 16 16" version="1.1" xmlns="http://www.w3.org/2000/svg" xmlns:xlink="http://www.w3.org/1999/xlink">
    <!-- Generator: Sketch 63.1 (92452) - https://sketch.com -->
    <title>API</title>
    <desc>Created with Sketch.</desc>
    <g id="页面-1" stroke="none" stroke-width="1" fill="none" fill-rule="evenodd">
        <g id="ModelBox-图编排" transform="translate(-1853.000000, -16.000000)" fill="#ADB0B8" fill-rule="nonzero">
            <g id="API" transform="translate(1853.000000, 16.000000)">
                <path d="M9.94561146,8.88495129 C10.2140969,9.15343674 10.2364707,9.57483637 10.0127328,9.86880752 L9.94561146,9.94561146 L8.87060222,11.0213804 C9.25993169,11.5680997 9.23872281,12.317326 8.8069756,12.8419819 L8.70817459,12.9508153 L7.29396103,14.3650288 C5.98666891,15.672321 3.90251321,15.72927 2.52753668,14.535876 L1.46033009,15.6024657 C1.16743687,15.8953589 0.692563133,15.8953589 0.399669914,15.6024657 C0.131184464,15.3339803 0.108810676,14.9125806 0.332548551,14.6186095 L0.399669914,14.5418055 L1.46691992,13.4753595 C0.317069654,12.1513158 0.327087233,10.1691552 1.49697266,8.85657867 L1.63710678,8.70817459 L3.05132034,7.29396103 C3.57698852,6.76829285 4.39574578,6.71434443 4.98157242,7.13211576 L6.05652416,6.05652416 C6.34941738,5.76363094 6.82429112,5.76363094 7.11718434,6.05652416 C7.38566979,6.32500961 7.40804357,6.74640925 7.1843057,7.0403804 L7.11718434,7.11718434 L6.05652416,8.17784451 L7.82429112,9.94561146 L8.88495129,8.88495129 C9.17784451,8.59205807 9.65271824,8.59205807 9.94561146,8.88495129 Z M7.64751442,11.8901551 L4.11198052,8.3546212 L2.69776695,9.76883476 L2.59610154,9.87825818 C1.95598596,10.6203492 1.95065167,11.720988 2.58009865,12.4690548 L2.69776695,12.5972619 L3.40487373,13.3043687 L3.51429715,13.4060341 C4.25638816,14.0461497 5.35702692,14.051484 6.10509373,13.422037 L6.23330086,13.3043687 L7.64751442,11.8901551 Z M15.6024657,0.399669914 C15.8709512,0.668155365 15.8933249,1.089555 15.6695871,1.38352615 L15.6024657,1.46033009 L14.535876,2.52753668 C15.72927,3.90251321 15.672321,5.98666891 14.3650288,7.29396103 L12.9508153,8.70817459 C12.3650288,9.29396103 11.4152814,9.29396103 10.8294949,8.70817459 L7.29396103,5.17264069 C6.70817459,4.58685425 6.70817459,3.63710678 7.29396103,3.05132034 L8.70817459,1.63710678 C10.0157078,0.329573597 12.1003911,0.272844644 13.4753595,1.46691992 L14.5418055,0.399669914 C14.8346988,0.106776695 15.3095725,0.106776695 15.6024657,0.399669914 Z M13.3043687,3.40487373 L12.5972619,2.69776695 C11.8517155,1.95222058 10.6640016,1.91833211 9.87825818,2.59610154 L9.76883476,2.69776695 L8.3546212,4.11198052 L11.8901551,7.64751442 L13.3043687,6.23330086 C14.049915,5.48775448 14.0838035,4.30004058 13.4060341,3.51429715 L13.3043687,3.40487373 Z" id="形状"></path>
            </g>
        </g>
    </g>
</svg>