<?xml version="1.0" standalone="no"?><!DOCTYPE svg PUBLIC "-//W3C//DTD SVG 1.1//EN" "http://www.w3.org/Graphics/SVG/1.1/DTD/svg11.dtd"><svg class="icon" width="200px" height="200.00px" viewBox="0 0 1024 1024" version="1.1" xmlns="http://www.w3.org/2000/svg"><path fill="#C80000" d="M717.34385778 2.28124445H120.24490667c-44.47459555-0.56433778-80.98702222 35.03104-81.55136 79.50563555l-0.00341334 0.30264889v859.78680889c0.38001778 44.47687111 36.74339555 80.22584889 81.22026667 79.84583111l0.19000889-0.00227556h783.76618666c44.47573333 0.50403555 80.93923555-35.14140445 81.44327112-79.61713778l0.00227555-0.22641777V278.51207111c-0.58368-14.08910222-252.96782222-276.23082667-267.96828444-276.23082666zM362.72469333 758.19576889V312.19143111L687.88906667 535.1936 362.72469333 758.19576889z m504.18574222-501.05457778H738.71587555c-7.41944889-0.07964445-13.36888889-6.15992889-13.28924444-13.57710222V118.46314667a6.62755555 6.62755555 0 0 1 10.92266667-5.09724445c32.33109333 28.28856889 106.85895111 101.94375111 135.7312 133.03580445a6.47964445 6.47964445 0 0 1-5.17006223 10.73948444z" /></svg>