<?xml version="1.0" encoding="UTF-8"?>
<svg width="16px" height="16px" viewBox="0 0 16 16" version="1.1" xmlns="http://www.w3.org/2000/svg" xmlns:xlink="http://www.w3.org/1999/xlink">
    <!-- Generator: Sketch 63.1 (92452) - https://sketch.com -->
    <title>帮助</title>
    <desc>Created with Sketch.</desc>
    <g id="页面-1" stroke="none" stroke-width="1" fill="none" fill-rule="evenodd">
        <g id="ModelBox-图编排" transform="translate(-1772.000000, -16.000000)" fill="#ADB0B8" fill-rule="nonzero">
            <g id="帮助" transform="translate(1772.000000, 16.000000)">
                <g id="infomation-help">
                    <path d="M8,0 C12.4,0 16,3.6 16,8 C16,12.4 12.4,16 8,16 C3.6,16 0,12.4 0,8 C0,3.6 3.6,0 8,0 Z M8,1.5 C4.4,1.5 1.5,4.4 1.5,8 C1.5,11.6 4.4,14.5 8,14.5 C11.6,14.5 14.5,11.6 14.5,8 C14.5,4.4 11.6,1.5 8,1.5 Z M9,11 L9,13 L7,13 L7,11 L9,11 Z M8,2.7 C9,2.7 9.8,2.9 10.5,3.4 C11.1,3.9 11.4,4.6 11.4,5.4 C11.4,5.9 11.3,6.3 11.1,6.7 C10.9,7.1 10.5,7.5 9.9,8 L9.9,8 L9.2,8.7 C9.1,8.8 9,9 9,9.1 C8.9,9.3 8.9,9.6 8.9,10 L8.9,10 L8.8,10.1 L7.2,10.1 L7.1,10 L7.1,10 L7.1,9.7 C7.1,9.2 7.1,8.8 7.3,8.4 C7.4,8.1 7.6,7.9 7.8,7.6 C8,7.4 8.2,7.1 8.6,6.8 C9,6.5 9.2,6.2 9.3,6 C9.4,5.8 9.4,5.7 9.4,5.5 C9.4,5.2 9.3,4.9 9,4.6 C8.8,4.3 8.4,4.2 8,4.2 C7.6,4.2 7.3,4.4 7,4.6 C6.8,4.8 6.6,5.2 6.5,5.8 L6.5,5.8 L6.5,6.2 L4.8,6 L4.7,5.9 L4.7,5.6 C4.8,4.6 5.1,3.9 5.7,3.5 C6.3,3 7.1,2.7 8,2.7 Z" id="形状结合"></path>
                </g>
            </g>
        </g>
    </g>
</svg>