<?xml version="1.0" encoding="UTF-8"?>
<svg width="16px" height="16px" viewBox="0 0 16 16" version="1.1" xmlns="http://www.w3.org/2000/svg" xmlns:xlink="http://www.w3.org/1999/xlink">
    <!-- Generator: Sketch 63.1 (92452) - https://sketch.com -->
    <title>图像</title>
    <desc>Created with Sketch.</desc>
    <g id="图像" stroke="none" stroke-width="1" fill="none" fill-rule="evenodd">
        <g id="编组-2">
            <rect id="矩形" x="0" y="0" width="16" height="16"></rect>
            <path d="M14,1 C15.1045695,1 16,1.8954305 16,3 L16,13 C16,14.1045695 15.1045695,15 14,15 L2,15 C0.8954305,15 0,14.1045695 0,13 L0,3 C0,1.8954305 0.8954305,1 2,1 L14,1 Z M4.5,6.561 L1.53033009,9.53033009 L1.5,9.556 L1.5,13 C1.5,13.2454599 1.67687516,13.4496084 1.91012437,13.4919443 L2,13.5 L14,13.5 C14.2454599,13.5 14.4496084,13.3231248 14.4919443,13.0898756 L14.5,13 L14.5,11.557 L14.4696699,11.5303301 L11,8.061 L9.561,9.5 L10.5303301,10.4696699 C10.8232233,10.7625631 10.8232233,11.2374369 10.5303301,11.5303301 C10.2640635,11.7965966 9.84739984,11.8208027 9.55378835,11.6029482 L9.46966991,11.5303301 L4.5,6.561 Z M14,2.5 L2,2.5 C1.75454011,2.5 1.55039163,2.67687516 1.50805567,2.91012437 L1.5,3 L1.5,7.438 L3.96966991,4.96966991 C4.23593648,4.70340335 4.65260016,4.6791973 4.94621165,4.89705176 L5.03033009,4.96966991 L8.5,8.439 L10.4696699,6.46966991 C10.7359365,6.20340335 11.1526002,6.1791973 11.4462117,6.39705176 L11.5303301,6.46966991 L14.5,9.439 L14.5,3 C14.5,2.75454011 14.3231248,2.55039163 14.0898756,2.50805567 L14,2.5 Z" id="形状结合" fill="#ADB0B8" fill-rule="nonzero"></path>
        </g>
    </g>
</svg>