<?xml version="1.0" encoding="UTF-8"?>
<svg width="32px" height="32px" viewBox="0 0 32 32" version="1.1" xmlns="http://www.w3.org/2000/svg" xmlns:xlink="http://www.w3.org/1999/xlink">
    <!-- Generator: Sketch 63.1 (92452) - https://sketch.com -->
    <title>AI Flow logo</title>
    <desc>Created with Sketch.</desc>
    <g id="AI-Flow-logo" stroke="none" stroke-width="1" fill="none" fill-rule="evenodd">
        <path d="M18,11 C18,9.8954305 18.8954305,9 20,9 C21.1045695,9 22,9.8954305 22,11 C22,11.7402824 21.5978014,12.3866262 21,12.7324356 L21,14.4852814 L16,19.4852814 L16,25 C16,26.1045695 15.1045695,27 14,27 C6.77580047,26.7278863 1,20.7884484 1,13.5 C1,6.04415588 7.04415588,0 14.5,0 C21.7884484,0 27.7278863,5.77580047 27.9909123,13 L28,13.1741043 L30.3529417,15.527046 C30.7507093,15.8925965 31,16.4171858 31,17 C31,18.1045695 30.1045695,19 29,19 L27,19 L27,23 C27,25.7614237 24.7614237,28 22,28 L21,28 L21,31 C21,31.5522847 20.5522847,32 20,32 C19.4477153,32 19,31.5522847 19,31 L19,28 C19,26.8954305 19.8954305,26 21,26 L22,26 C23.6568542,26 25,24.6568542 25,23 L25,19 C25,17.8954305 25.8954305,17 27,17 L28.9974686,17 L26,14 L25.9893258,13 C25.7275476,6.88069188 20.6837471,2 14.5,2 C8.14872538,2 3,7.14872538 3,13.5 C3,19.6837471 7.88069188,24.7275476 14,24.9893258 L14,23.3137085 L9,18.4228363 L9,15.7324356 C8.40219863,15.3866262 8,14.7402824 8,14 C8,12.8954305 8.8954305,12 10,12 C11.1045695,12 12,12.8954305 12,14 C12,14.7402824 11.5978014,15.3866262 11,15.7324356 L11,17.5857864 L14,20.5857864 L14,8.73243561 C13.4021986,8.38662619 13,7.74028236 13,7 C13,5.8954305 13.8954305,5 15,5 C16.1045695,5 17,5.8954305 17,7 C17,7.74028236 16.5978014,8.38662619 16,8.73243561 L16,16.6568542 L19,13.6568542 L19,12.7324356 C18.4021986,12.3866262 18,11.7402824 18,11 Z M10,15 C10.5522847,15 11,14.5522847 11,14 C11,13.4477153 10.5522847,13 10,13 C9.44771525,13 9,13.4477153 9,14 C9,14.5522847 9.44771525,15 10,15 Z M15,8 C15.5522847,8 16,7.55228475 16,7 C16,6.44771525 15.5522847,6 15,6 C14.4477153,6 14,6.44771525 14,7 C14,7.55228475 14.4477153,8 15,8 Z M20,12 C20.5522847,12 21,11.5522847 21,11 C21,10.4477153 20.5522847,10 20,10 C19.4477153,10 19,10.4477153 19,11 C19,11.5522847 19.4477153,12 20,12 Z" id="Combined-Shape-Copy-3" fill="#FFFFFF" fill-rule="nonzero" transform="translate(16.000000, 16.000000) scale(-1, 1) translate(-16.000000, -16.000000) "></path>
    </g>
</svg>