<svg width="16" height="16" xmlns="http://www.w3.org/2000/svg">
 <!-- Created with UXWing SVG Editor - https://uxwing.com/svg-icon-editor/ -->
 <g>
  <title>background</title>
  <rect fill="none" id="canvas_background" height="18" width="18" y="-1" x="-1"/>
  <g display="none" overflow="visible" y="0" x="0" height="100%" width="100%" id="canvasGrid">
   <rect fill="url(#gridpattern)" stroke-width="0" y="0" x="0" height="100%" width="100%"/>
  </g>
 </g>
 <g>
  <title>Layer 1</title>
  <path stroke="#FF0000" id="svg_2" d="m4.02045,6.21579c0.95613,1.83592 1.1428,2.39347 0.82666,2.46918c-0.61754,0.14791 -0.49345,0.99384 0.37091,2.52835c1.084,1.92445 3.20722,3.10624 5.20158,2.89521c0.77409,-0.08191 1.64924,-0.25096 1.94477,-0.37566c0.29553,-0.1247 0.11418,0.10761 -0.403,0.51625c-2.58722,2.04423 -5.78256,1.90183 -8.33174,-0.3713c-1.01641,-0.90634 -2.41482,-3.55443 -2.41482,-4.57279c0,-0.2885 -0.23055,-0.56804 -0.51234,-0.6212c-0.46082,-0.08694 -0.39894,-0.31586 0.61555,-2.2769c0.62033,-1.19913 1.20428,-2.26625 1.29765,-2.37138c0.09338,-0.10512 0.72552,0.87598 1.40478,2.18024l0,0zm8.21882,3.53943c-0.95614,-1.83592 -1.1428,-2.39346 -0.82667,-2.46918c0.61755,-0.14791 0.49345,-0.99383 -0.3709,-2.52835c-1.084,-1.92445 -3.20722,-3.10624 -5.20158,-2.8952c-0.7741,0.08191 -1.64924,0.25095 -1.94477,0.37566c-0.29553,0.1247 -0.11418,-0.10761 0.40299,-0.51625c2.58723,-2.04424 5.78256,-1.90184 8.33174,0.3713c1.01641,0.90634 2.41483,3.55443 2.41483,4.57279c0,0.28849 0.23055,0.56803 0.51233,0.62119c0.46083,0.08694 0.39894,0.31586 -0.61554,2.2769c-0.62034,1.19913 -1.20428,2.26625 -1.29765,2.37138c-0.09338,0.10513 -0.72553,-0.87598 -1.40478,-2.18024l0,0z" stroke-opacity="null" stroke-width="0.001" fill="#575d6c"/>
 </g>
</svg>