<svg version="1.1" id="图层_1" xmlns="http://www.w3.org/2000/svg" xmlns:xlink="http://www.w3.org/1999/xlink" x="0px" y="0px" viewBox="0 0 16 16" style="enable-background:new 0 0 16 16;" xml:space="preserve" width="16px" height="16px">
<style type="text/css">
    .st0{fill:#575D6C;}
</style>
<path class="st0" d="M4,10.5l1.6,1.7c0.3,0.3,0.3,0.8-0.1,1.1c-0.3,0.3-0.8,0.3-1.1-0.1l-2.7-3C1.4,9.8,1.7,9,2.4,9h11.3&#10;&#9;c0.4,0,0.8,0.3,0.8,0.8s-0.3,0.8-0.8,0.8H4z
M12,5.5l-1.6-1.7c-0.3-0.3-0.3-0.8,0.1-1.1c0.3-0.3,0.8-0.3,1.1,0.1l2.7,3&#10;&#9;C14.6,6.2,14.3,7,13.6,7H2.3C1.9,7,1.6,6.3c0-0.4,0.3-0.7,0.7-0.7H12z"/>
</svg>