<?xml version="1.0" standalone="no"?><!DOCTYPE svg PUBLIC "-//W3C//DTD SVG 1.1//EN" "http://www.w3.org/Graphics/SVG/1.1/DTD/svg11.dtd"><svg class="icon" width="200px" height="200.00px" viewBox="0 0 1024 1024" version="1.1" xmlns="http://www.w3.org/2000/svg"><path fill="#C80000" d="M672.768 102.912c0-28.672 24.064-51.712 52.224-51.712 28.672 0 52.224 23.04 52.224 51.712v83.456c1.024 13.312-4.608 26.112-14.336 35.84-9.728 11.264-23.04 15.872-37.376 15.872-28.672 0-52.224-23.04-52.224-51.712v-83.456h-0.512z m-215.04 0c0-28.672 24.064-51.712 52.224-51.712 28.672 0 52.224 23.04 52.224 51.712v83.456c0 28.672-24.064 51.712-52.224 51.712-28.672 0-52.224-23.04-52.224-51.712v-83.456z m-215.04 0c0-28.672 23.552-51.712 52.224-51.712s52.224 23.04 52.224 51.712v83.456c0 28.672-24.064 51.712-52.224 51.712s-52.224-23.04-52.224-51.712v-83.456zM885.76 134.656h-80.896v51.712c0 41.472-34.816 74.752-76.8 74.752s-76.8-33.28-76.8-74.752v-51.712H588.8v51.712c0 41.472-34.816 74.752-76.8 74.752s-76.8-33.28-76.8-74.752v-51.712h-62.464v51.712c0 41.472-34.816 74.752-76.8 74.752s-76.8-33.28-76.8-74.752v-51.712h-81.408c-28.672 0-52.224 23.04-52.224 51.712v729.6c0 28.672 24.064 51.712 52.224 51.712h744.96c28.672 0 52.224-23.04 52.224-51.712h3.072v-729.6c0-28.672-23.04-51.712-52.224-51.712zM768 830.976H251.904c-28.672 0-52.224-23.04-52.224-51.712s24.064-51.712 52.224-51.712h517.12c14.336 0 27.136 5.632 37.376 16.896 8.704 10.24 14.336 23.04 14.336 36.352 0 27.136-24.064 50.176-52.736 50.176z m0-187.392H251.904c-28.672 0-52.224-23.04-52.224-51.712s24.064-51.712 52.224-51.712h517.12c14.336 0 27.136 5.632 37.376 16.896 8.704 10.24 14.336 23.04 14.336 36.352 0 27.136-24.064 50.176-52.736 50.176z m0-187.392H251.904c-28.672 0-52.224-23.04-52.224-51.712s24.064-51.712 52.224-51.712h517.12c14.336 0 27.136 4.608 37.376 16.896 8.704 10.24 14.336 23.04 14.336 36.352 0 27.136-24.064 50.176-52.736 50.176z" /></svg>