<?xml version="1.0" encoding="UTF-8"?>
<svg width="16px" height="16px" viewBox="0 0 16 16" version="1.1" xmlns="http://www.w3.org/2000/svg" xmlns:xlink="http://www.w3.org/1999/xlink">
    <!-- Generator: Sketch 63.1 (92452) - https://sketch.com -->
    <title>撤销</title>
    <desc>Created with Sketch.</desc>
    <g id="撤销" stroke="none" stroke-width="1" fill="none" fill-rule="evenodd">
        <g id="编组-3">
            <rect id="矩形备份-4" x="0" y="0" width="16" height="16"></rect>
            <path d="M10.7650157,2.75293461 C10.7575693,2.76052512 10.7558958,2.77273208 10.7587768,2.78381516 L10.5212656,5.95682866 C7.30961732,5.81263492 5.12345378,6.66419519 3.73505019,7.98678855 C2.59435137,9.07341833 2.00077166,10.4613314 1.79307013,11.7996265 C4.49442805,9.62813691 7.52963254,9.35974158 8.84753953,9.35974158 C9.46890325,9.35974158 9.93723369,9.41394495 10.1154549,9.4398812 C10.2281305,9.45627871 10.4551753,9.49489689 10.7574463,9.56583893 L10.7574463,13.2287791 C10.7574463,13.2360947 10.7597602,13.2430931 10.7646113,13.2480257 L10.7659374,13.25 L15.1723564,7.95837004 C15.2271399,7.8938921 15.2505889,7.82010514 15.2499888,7.74711095 C15.2494059,7.67619732 15.2261157,7.6049069 15.1778206,7.54781065 L10.7734533,2.76501401 L10.7650157,2.75293461 Z" id="形状" stroke="#575D6C" stroke-width="1.5" fill-rule="nonzero" transform="translate(8.000000, 8.000589) scale(-1, 1) translate(-8.000000, -8.000589) "></path>
        </g>
    </g>
</svg>