<?xml version="1.0" encoding="UTF-8"?>
<svg width="16px" height="16px" viewBox="0 0 16 16" version="1.1" xmlns="http://www.w3.org/2000/svg" xmlns:xlink="http://www.w3.org/1999/xlink">
    <!-- Generator: Sketch 63.1 (92452) - https://sketch.com -->
    <title>视频</title>
    <desc>Created with Sketch.</desc>
    <g id="视频" stroke="none" stroke-width="1" fill="none" fill-rule="evenodd">
        <g id="编组">
            <g>
                <rect id="矩形" x="0" y="0" width="16" height="16"></rect>
                <path d="M13,0.25 C14.5187831,0.25 15.75,1.48121694 15.75,3 L15.75,3 L15.75,13 C15.75,14.5187831 14.5187831,15.75 13,15.75 L13,15.75 L3,15.75 C1.48121694,15.75 0.25,14.5187831 0.25,13 L0.25,13 L0.25,3 C0.25,1.48121694 1.48121694,0.25 3,0.25 L3,0.25 Z M14.25,5 L1.75,5 L1.75,13 C1.75,13.6472087 2.24187466,14.1795339 2.87219476,14.2435464 L3,14.25 L13,14.25 C13.6903559,14.25 14.25,13.6903559 14.25,13 L14.25,13 L14.25,5 Z M5.75,7 C5.75,6.41092334 6.3979632,6.05179127 6.89749921,6.36400127 L6.89749921,6.36400127 L10.8974992,8.86400127 C11.3675003,9.15775193 11.3675003,9.84224807 10.8974992,10.1359987 L10.8974992,10.1359987 L6.89749921,12.6359987 C6.3979632,12.9482087 5.75,12.5890767 5.75,12 L5.75,12 Z M7.25,8.352 L7.25,10.647 L9.086,9.5 L7.25,8.352 Z M1.94803285,2.32454016 C1.82270602,2.5193219 1.75,2.75117025 1.75,3 L1.75,3 L1.75,4 L3.065,4 Z M4.624,1.75 L3,1.75 C2.92518824,1.75 2.85191149,1.75657212 2.78071559,1.7691705 L4.268,4 L6.065,4 L4.58397485,1.7773501 L4.624,1.75 Z M7.624,1.75 L5.768,1.75 L7.268,4 L9.065,4 L7.58397485,1.7773501 L7.624,1.75 Z M10.624,1.75 L8.768,1.75 L10.268,4 L12.065,4 L10.5839749,1.7773501 L10.624,1.75 Z M13,1.75 L11.768,1.75 L13.268,4 L14.25,4 L14.25,3 C14.25,2.35279131 13.7581253,1.8204661 13.1278052,1.75645361 L13,1.75 Z" id="形状结合" fill="#ADB0B8" fill-rule="nonzero"></path>
            </g>
        </g>
    </g>
</svg>