<?xml version="1.0" encoding="UTF-8"?>
<svg width="16px" height="16px" viewBox="0 0 16 16" version="1.1" xmlns="http://www.w3.org/2000/svg" xmlns:xlink="http://www.w3.org/1999/xlink">
    <!-- Generator: Sketch 63.1 (92452) - https://sketch.com -->
    <title>自适应</title>
    <desc>Created with Sketch.</desc>
    <g id="自适应" stroke="none" stroke-width="1" fill="none" fill-rule="evenodd">
        <g id="全屏备份" fill="#575D6C" fill-rule="nonzero">
            <g id="expand-1">
                <path d="M14.5,0.5 C15.1,0.5 15.5,0.9 15.5,1.5 L15.5,1.5 L15.5,14.5 C15.5,15.1 15.1,15.5 14.5,15.5 L14.5,15.5 L1.5,15.5 C0.9,15.5 0.5,15.1 0.5,14.5 L0.5,14.5 L0.5,1.5 C0.5,0.9 0.9,0.5 1.5,0.5 L1.5,0.5 Z M13.5,2 L2.5,2 C2.2,2 2,2.2 2,2.5 L2,2.5 L2,13.5 C2,13.8 2.2,14 2.5,14 L2.5,14 L13.5,14 C13.8,14 14,13.8 14,13.5 L14,13.5 L14,2.5 C14,2.2 13.8,2 13.5,2 L13.5,2 Z M13,9 L13,12.5 C13,12.8 12.8,13 12.5,13 L12.5,13 L9,13 L10.5,11.6 L11.5,10.5 L13,9 Z M3,9 L7,13 L3.5,13 C3.2,13 3,12.8 3,12.5 L3,12.5 L3,9 Z M7,3 L3,7 L3,3.5 C3,3.2 3.2,3 3.5,3 L3.5,3 L7,3 Z M12.5,3 C12.8,3 13,3.2 13,3.5 L13,3.5 L13,7 L11.6,5.5 L10.5,4.5 L9,3 Z" id="形状结合"></path>
            </g>
        </g>
    </g>
</svg>