<?xml version="1.0" encoding="UTF-8"?>
<svg width="16px" height="16px" viewBox="0 0 16 16" version="1.1" xmlns="http://www.w3.org/2000/svg" xmlns:xlink="http://www.w3.org/1999/xlink">
    <!-- Generator: Sketch 63.1 (92452) - https://sketch.com -->
    <title>1:1</title>
    <desc>Created with Sketch.</desc>
    <g id="1:1" stroke="none" stroke-width="1" fill="none" fill-rule="evenodd">
        <g id="编组-3">
            <rect id="矩形" x="0" y="0" width="16" height="16"></rect>
            <path d="M15,2 C15.5522847,2 16,2.44771525 16,3 L16,13 C16,13.5522847 15.5522847,14 15,14 L1,14 C0.44771525,14 0,13.5522847 0,13 L0,3 C0,2.44771525 0.44771525,2 1,2 L15,2 Z M14.5,3.5 L1.5,3.5 L1.5,12.5 L14.5,12.5 L14.5,3.5 Z M4.5,5.25 C4.87969577,5.25 5.19349096,5.53215388 5.24315338,5.89822944 L5.25,6 L5.25,10 C5.25,10.4142136 4.91421356,10.75 4.5,10.75 C4.12030423,10.75 3.80650904,10.4678461 3.75684662,10.1017706 L3.75,10 L3.75,6 C3.75,5.58578644 4.08578644,5.25 4.5,5.25 Z M11.5,5.25 C11.8796958,5.25 12.193491,5.53215388 12.2431534,5.89822944 L12.25,6 L12.25,10 C12.25,10.4142136 11.9142136,10.75 11.5,10.75 C11.1203042,10.75 10.806509,10.4678461 10.7568466,10.1017706 L10.75,10 L10.75,6 C10.75,5.58578644 11.0857864,5.25 11.5,5.25 Z M8.5,8.25 C8.91421356,8.25 9.25,8.58578644 9.25,9 C9.25,9.37969577 8.96784612,9.69349096 8.60177056,9.74315338 L8.5,9.75 L7.5,9.75 C7.08578644,9.75 6.75,9.41421356 6.75,9 C6.75,8.62030423 7.03215388,8.30650904 7.39822944,8.25684662 L7.5,8.25 L8.5,8.25 Z M8.5,6.25 C8.91421356,6.25 9.25,6.58578644 9.25,7 C9.25,7.37969577 8.96784612,7.69349096 8.60177056,7.74315338 L8.5,7.75 L7.5,7.75 C7.08578644,7.75 6.75,7.41421356 6.75,7 C6.75,6.62030423 7.03215388,6.30650904 7.39822944,6.25684662 L7.5,6.25 L8.5,6.25 Z" id="形状结合" fill="#575D6C" fill-rule="nonzero"></path>
        </g>
    </g>
</svg>