<?xml version="1.0" encoding="UTF-8"?>
<svg width="16px" height="16px" viewBox="0 0 16 16" version="1.1" xmlns="http://www.w3.org/2000/svg" xmlns:xlink="http://www.w3.org/1999/xlink">
    <!-- Generator: Sketch 63.1 (92452) - https://sketch.com -->
    <title>缩小</title>
    <desc>Created with Sketch.</desc>
    <g id="缩小" stroke="none" stroke-width="1" fill="none" fill-rule="evenodd">
        <g id="编组-3备份">
            <rect id="矩形" x="0" y="0" width="16" height="16"></rect>
            <path d="M7.5,0.25 C11.5040644,0.25 14.75,3.49593556 14.75,7.5 C14.75,9.23187293 14.1427468,10.8219143 13.1295486,12.0688158 L15.5303301,14.4696699 C15.8232233,14.7625631 15.8232233,15.2374369 15.5303301,15.5303301 C15.2640635,15.7965966 14.8473998,15.8208027 14.5537883,15.6029482 L14.4696699,15.5303301 L12.0688158,13.1295486 C10.8219143,14.1427468 9.23187293,14.75 7.5,14.75 C3.49593556,14.75 0.25,11.5040644 0.25,7.5 C0.25,3.49593556 3.49593556,0.25 7.5,0.25 Z M7.5,1.75 C4.32436269,1.75 1.75,4.32436269 1.75,7.5 C1.75,10.6756373 4.32436269,13.25 7.5,13.25 C10.6756373,13.25 13.25,10.6756373 13.25,7.5 C13.25,4.32436269 10.6756373,1.75 7.5,1.75 Z M10,6.75 C10.4142136,6.75 10.75,7.08578644 10.75,7.5 C10.75,7.87969577 10.4678461,8.19349096 10.1017706,8.24315338 L10,8.25 L5,8.25 C4.58578644,8.25 4.25,7.91421356 4.25,7.5 C4.25,7.12030423 4.53215388,6.80650904 4.89822944,6.75684662 L5,6.75 L10,6.75 Z" id="形状结合" fill="#575D6C" fill-rule="nonzero"></path>
        </g>
    </g>
</svg>